<?xml version="1.0" encoding="utf-8"?>
<svg width="69px" height="88px" viewBox="0 0 69 88" version="1.1" xmlns:xlink="http://www.w3.org/1999/xlink" xmlns="http://www.w3.org/2000/svg">
  <defs>
    <filter id="filter_1">
      <feColorMatrix in="SourceGraphic" type="matrix" values="0 0 0 0 1 0 0 0 0 1 0 0 0 0 1 0 0 0 1 0" />
    </filter>
    <filter filterUnits="userSpaceOnUse" color-interpolation-filters="sRGB" id="filter_2">
      <feFlood flood-opacity="0" result="BackgroundImageFix" />
      <feColorMatrix in="SourceAlpha" type="matrix" values="0 0 0 0 0 0 0 0 0 0 0 0 0 0 0 0 0 0 127 0" />
      <feOffset dx="0" dy="12" />
      <feGaussianBlur stdDeviation="1.5" />
      <feColorMatrix type="matrix" values="0 0 0 0 0.39215687 0 0 0 0 0.39215687 0 0 0 0 0.39215687 0 0 0 0.49803922 0" />
      <feBlend mode="normal" in2="BackgroundImageFix" result="effect0_dropShadow" />
      <feBlend mode="normal" in="SourceGraphic" in2="effect0_dropShadow" result="shape" />
    </filter>
    <path d="M0 0L60 0L60 71L0 71L0 0Z" id="path_1" />
    <clipPath id="mask_1">
      <use xlink:href="#path_1" />
    </clipPath>
  </defs>
  <g filter="url(#filter_2)">
    <g id="Music-icon" transform="translate(4.5 0)" opacity="0.6" filter="url(#filter_1)">
      <path d="M0 0L60 0L60 71L0 71L0 0Z" id="Background" fill="none" fill-rule="evenodd" stroke="none" />
      <g clip-path="url(#mask_1)">
        <path d="M27.5 8.875L27.5 11.8333L27.5 23.6667L27.5 43.0172C25.9811 41.9733 24.2565 41.4213 22.5 41.4167C16.9772 41.4167 12.5 46.7146 12.5 53.25C12.5 59.7854 16.9772 65.0833 22.5 65.0833C28.0229 65.0833 32.5 59.7854 32.5 53.25L32.5 23.6667L47.5 23.6667L47.5 8.875L27.5 8.875L27.5 8.875Z" id="Shape" fill="#FFFFFF" fill-rule="evenodd" stroke="none" />
      </g>
    </g>
  </g>
</svg>