<?xml version="1.0" encoding="utf-8"?>
<svg width="60px" height="71px" viewBox="0 0 60 71" version="1.1" xmlns:xlink="http://www.w3.org/1999/xlink" xmlns="http://www.w3.org/2000/svg">
  <defs>
    <filter id="filter_1">
      <feColorMatrix in="SourceGraphic" type="matrix" values="0 0 0 0 1 0 0 0 0 1 0 0 0 0 1 0 0 0 1 0" />
    </filter>
    <filter filterUnits="userSpaceOnUse" color-interpolation-filters="sRGB" id="filter_2">
      <feFlood flood-opacity="0" result="BackgroundImageFix" />
      <feColorMatrix in="SourceAlpha" type="matrix" values="0 0 0 0 0 0 0 0 0 0 0 0 0 0 0 0 0 0 127 0" />
      <feOffset dx="0" dy="9" />
      <feGaussianBlur stdDeviation="0.5" />
      <feColorMatrix type="matrix" values="0 0 0 0 0.39215687 0 0 0 0 0.39215687 0 0 0 0 0.39215687 0 0 0 0.49803922 0" />
      <feBlend mode="normal" in2="BackgroundImageFix" result="effect0_dropShadow" />
      <feBlend mode="normal" in="SourceGraphic" in2="effect0_dropShadow" result="shape" />
    </filter>
  </defs>
  <g filter="url(#filter_2)">
    <g id="Group" transform="translate(1.5 0)" filter="url(#filter_1)">
      <path d="M0 0L57 0L57 60L0 60L0 0Z" id="Background" fill="none" fill-rule="evenodd" stroke="none" />
      <path d="M28.5 4.86328L27.2197 6.15234L4.06348 30.5273L6.62402 33.2227L8.90625 30.8203L8.90625 52.5L24.9375 52.5L24.9375 33.75L32.0625 33.75L32.0625 52.5L48.0938 52.5L48.0938 30.8203L50.376 33.2227L52.9365 30.5273L29.7803 6.15234L28.5 4.86328ZM28.5 10.1953L44.5312 27.0703L44.5312 48.75L35.625 48.75L35.625 30L21.375 30L21.375 48.75L12.4688 48.75L12.4688 27.0703L28.5 10.1953Z" id="Shape" fill="#FFFFFF" fill-rule="evenodd" stroke="none" />
    </g>
  </g>
</svg>